<svg width="48" height="48" viewBox="0 0 48 48" fill="none" xmlns="http://www.w3.org/2000/svg">
<circle cx="24" cy="24" r="24" fill="#A96BB6"/>
<path d="M20 47.6628V30.5868H14V23.5868H20L19.833 18.4003C19.833 15.4543 20.6794 13.2489 22.3721 11.7841C24.0811 10.3192 25.9447 9.08681 28.5 9.08681C29.6719 9.08681 31.5397 8.89149 32.5 9.08681C33.4766 9.26584 34.0443 9.4566 34.5 9.5868V15.6415C34.207 15.5601 32.7686 15.5194 31.9668 15.6415C31.5436 15.5601 30.8275 15.6415 30.3555 15.6415C29.2487 15.6415 28.9557 16.066 28.5 16.5868C28.0605 17.0914 28 17.6591 28 18.5868L28.0117 23.5868H34.5L33.5 30.5868H28.0117V47.6628C24.7706 48.0587 23.0275 48.1139 20 47.6628Z" fill="#FFF5FF"/>
</svg>
