<svg width="48" height="48" viewBox="0 0 48 48" fill="none" xmlns="http://www.w3.org/2000/svg">
<circle cx="24" cy="24" r="24" fill="#A96BB6"/>
<path fill-rule="evenodd" clip-rule="evenodd" d="M11 19C11 14.5817 14.5817 11 19 11H29C33.4183 11 37 14.5817 37 19V29C37 33.4183 33.4183 37 29 37H19C14.5817 37 11 33.4183 11 29V19ZM31 24C31 27.866 27.866 31 24 31C20.134 31 17 27.866 17 24C17 20.134 20.134 17 24 17C27.866 17 31 20.134 31 24ZM31 19C32.1046 19 33 18.1046 33 17C33 15.8954 32.1046 15 31 15C29.8954 15 29 15.8954 29 17C29 18.1046 29.8954 19 31 19Z" fill="#FFF5FF"/>
</svg>
