<svg width="103" height="22" viewBox="0 0 103 22" fill="none" xmlns="http://www.w3.org/2000/svg">
<path d="M97.0788 22C96.2401 22 95.4693 21.864 94.7666 21.5919C94.0639 21.3426 93.4631 20.9119 92.9644 20.2998C92.4657 19.6651 92.0917 18.8037 91.8423 17.7156C91.593 16.6275 91.5023 15.2447 91.5703 13.5672L92.0463 2.00617L96.9428 1.36011L97.2488 1.32611L97.2828 1.70014C97.1922 1.85883 97.1015 2.01751 97.0108 2.17619C96.9201 2.33487 96.8635 2.60689 96.8408 2.99226L96.4327 8.22874H96.6368L96.3647 13.3292C96.2967 14.6213 96.3421 15.6301 96.5008 16.3555C96.6821 17.0582 96.9315 17.5456 97.2488 17.8176C97.5889 18.0896 97.9402 18.2256 98.3029 18.2256C99.0056 18.2256 99.6404 18.0783 100.207 17.7836C100.796 17.4889 101.307 17.1602 101.737 16.7975L102.553 20.1638C101.783 20.7305 100.944 21.1839 100.037 21.5239C99.153 21.8413 98.1669 22 97.0788 22ZM88.5 5.5L101.499 5.5765L101.431 9.31683L89 9L88.5 5.5Z" fill="#A96BB6"/>
<path d="M74.6367 5.57654H79.5672V9.96294L79.0231 9.82693C79.0911 9.14687 79.2612 8.53481 79.5332 7.99076C79.8279 7.42404 80.2019 6.93667 80.6553 6.52863C81.1087 6.09793 81.6074 5.76923 82.1514 5.54254C83 5.5 83.4106 5.50001 84 5.50001C84.9294 5.50001 85.6567 5.50005 86.5 5.50003C87.8039 5.5 87.5 5.50003 88.5 5.5L89 9H88H87.5C87.5 9 87.5 9 87 9C86.6961 9 86.5 9 86 9C85.5 9 85.0365 9 84.5 9C84.2694 9 83.4534 9 83 9C82.4786 9 82.5 9 81.6414 9.35089C81.2107 9.50957 80.8366 9.75892 80.5193 10.099C80.2019 10.439 79.9526 10.8697 79.7712 11.3911C79.5899 11.9125 79.4992 12.5358 79.4992 13.2612V21.592H74.6367V5.57654Z" fill="#A96BB6"/>
<path d="M66.8501 22C65.7166 22 64.6512 21.8187 63.6538 21.456C62.679 21.0706 61.8176 20.5265 61.0695 19.8238C60.3441 19.1211 59.7774 18.2597 59.3694 17.2396C58.9613 16.1968 58.7573 15.0294 58.7573 13.7373C58.7573 12.4225 58.95 11.2437 59.3354 10.2009C59.7434 9.13551 60.2875 8.24009 60.9675 7.51469C61.6703 6.76663 62.4863 6.19991 63.4157 5.81454C64.3452 5.4065 65.3539 5.20248 66.442 5.20248C67.3714 5.20248 68.2555 5.3725 69.0943 5.71253C69.9557 6.05256 70.7151 6.56261 71.3725 7.24267C72.0299 7.90006 72.5512 8.72747 72.9366 9.72489C73.322 10.6996 73.5147 11.8218 73.5147 13.0912C73.5147 13.3632 73.5147 13.7033 73.5147 14.1113C73.5147 14.5193 73.5033 14.848 73.4807 15.0974H63.3817C63.4271 15.6641 63.5631 16.1515 63.7898 16.5595C64.0165 16.9449 64.2998 17.2736 64.6399 17.5456C65.0026 17.795 65.3879 17.9876 65.796 18.1237C66.5 18.5 66.5693 18.5 67 18.5C67.4534 18.5 68 18.5 68.5 18.5C68.9299 18.5 70 18.5 70.5 18.5C71 18.5 76 18.5 76.5 18.5H79.5V22C78 22 76.6747 22 73 22C72.5 22 70 22 69.5 22C68.7882 22 67.6435 22 66.8501 22ZM63.4157 11.5611H68.9582C68.9582 11.1077 68.9016 10.7223 68.7882 10.405C68.6749 10.0649 68.5049 9.7929 68.2782 9.58888C68.0515 9.3622 67.7681 9.20351 67.4281 9.11284C67.0881 8.99949 66.7027 8.94282 66.272 8.94282C65.8866 8.94282 65.5239 8.99949 65.1839 9.11284C64.8665 9.20351 64.5832 9.3622 64.3338 9.58888C64.0845 9.7929 63.8805 10.0649 63.7218 10.405C63.5631 10.7223 63.4611 11.1077 63.4157 11.5611Z" fill="#A96BB6"/>
<path d="M52.3137 21.592C51.1349 21.592 50.1885 21.592 49.0664 21.592C48.0633 21.592 45.2297 21.592 43.1046 21.592C43.1046 20.8836 43.1046 19.4668 43.1046 18.05C43.1046 17.1376 43.1046 15.0747 43.1046 13.8733C43.1046 12.6945 44.204 11.5157 44.612 10.473C45.0427 9.4302 45.6321 8.52345 46.3802 7.75272C47.1509 6.95931 48.0463 6.33592 49.0664 5.88255C50.0865 5.42917 51.1973 5.20248 52.3987 5.20248C53.9856 5.20248 55.3457 5.48584 56.4791 6.05256C57.6125 6.59661 58.508 7.36735 59.1654 8.36477L56.6151 11.255L56.4111 11.4931L56.1051 11.255C56.0824 11.0737 56.0597 10.881 56.0371 10.677C56.0144 10.473 55.8897 10.2236 55.663 9.92891C55.2777 9.54354 54.8356 9.28285 54.3369 9.14684C53.8382 9.01083 53.2715 8.94282 52.6368 8.94282C52.1381 8.94282 51.662 9.05617 51.2086 9.28285C50.7553 9.48687 50.3472 9.7929 49.9845 10.2009C49.6218 10.609 49.3385 11.119 49.1344 11.7311C48.9304 12.3431 48.8284 13.0572 48.8284 13.8733C48.8284 14.576 48.9304 15.2107 49.1344 15.7774C49.3611 16.3215 49.6445 16.7749 49.9845 17.1376C50.3472 17.5003 50.7439 17.7836 51.1746 17.9876C51.628 18.169 52.0814 18.2597 52.5348 18.2597C52.9881 18.2597 53.4302 18.203 53.8609 18.0897C54.3143 17.9763 55.425 17.6136 55.8557 17.3416C56.6151 17.1376 58.9897 15.7378 59.3977 15.2164L60.8145 18.05C59.9304 19.0474 57.1252 20.9572 55.9011 21.388C54.4389 21.592 53.4472 21.592 52.3137 21.592Z" fill="#A96BB6"/>
<path d="M29.8887 21.592V5.57652H34.7511V7.41268C35.1138 6.98198 35.4879 6.60795 35.8732 6.29058C36.2586 5.95055 36.6893 5.68986 37.1654 5.50851C37.6641 5.30449 38.2195 5.20248 38.8315 5.20248C39.7836 5.20248 40.679 5.44051 41.5178 5.91655C42.3565 6.36992 43.0366 7.09532 43.5579 8.09275C44.0793 9.0675 44.34 10.3596 44.34 11.9691V21.592H39.5116V12.0031C39.5116 11.2777 39.4436 10.677 39.3076 10.2009C39.1715 9.70223 38.9562 9.32819 38.6615 9.07884C38.3668 8.82948 37.9928 8.7048 37.5394 8.7048C37.1767 8.7048 36.8253 8.78414 36.4853 8.94282C36.1453 9.07884 35.8392 9.28285 35.5672 9.55488C35.3179 9.8269 35.1138 10.1556 34.9552 10.541C34.8191 10.9263 34.7511 11.357 34.7511 11.8331V21.592H29.8887Z" fill="#A96BB6"/>
<path d="M22.272 22C20.8439 22 19.5404 21.66 18.3617 20.9799C17.1829 20.2772 16.2421 19.2911 15.5394 18.0216C14.8367 16.7522 14.4853 15.2787 14.4853 13.6012C14.4853 12.0371 14.8367 10.6203 15.5394 9.35086C16.2421 8.08141 17.1829 7.07265 18.3617 6.32459C19.5404 5.57652 20.8439 5.20248 22.272 5.20248C23.7001 5.20248 25.0036 5.57652 26.1824 6.32459C27.3838 7.07265 28.3359 8.08141 29.0386 9.35086C29.764 10.6203 30.1267 12.0371 30.1267 13.6012C30.1267 15.2561 29.764 16.7182 29.0386 17.9876C28.3359 19.2571 27.3838 20.2432 26.1824 20.9459C25.0036 21.6486 23.7001 22 22.272 22ZM22.272 18.2257C22.8841 18.2257 23.4168 18.033 23.8702 17.6476C24.3462 17.2622 24.7202 16.7295 24.9923 16.0495C25.2643 15.3467 25.4003 14.5307 25.4003 13.6012C25.4003 12.6038 25.2643 11.7651 24.9923 11.085C24.7202 10.405 24.3462 9.88357 23.8702 9.52088C23.4168 9.15818 22.8841 8.97683 22.272 8.97683C21.7053 8.97683 21.1839 9.15818 20.7079 9.52088C20.2545 9.88357 19.8918 10.405 19.6198 11.085C19.3478 11.7651 19.2117 12.6038 19.2117 13.6012C19.2117 14.5307 19.3364 15.3467 19.5858 16.0495C19.8578 16.7295 20.2205 17.2622 20.6739 17.6476C21.1499 18.033 21.6826 18.2257 22.272 18.2257Z" fill="#A96BB6"/>
<path d="M8.53477 22C7.37867 22 6.27924 21.7846 5.23647 21.3539C4.21638 20.9232 3.30963 20.2658 2.51623 19.3818C1.72282 18.4977 1.09943 17.3756 0.646059 16.0155C0.215353 14.6327 0 13.0005 0 11.119C0 9.46419 0.170015 8.01339 0.510046 6.76661C0.872746 5.51983 1.34879 4.46574 1.93818 3.60433C2.55023 2.74292 3.23029 2.05152 3.97836 1.53014C4.7491 0.98609 5.5425 0.600722 6.35858 0.374035C7.19732 0.124678 8.02473 0 8.8408 0C10.4956 0 11.9011 0.351365 13.0572 1.0541C14.2133 1.75683 15.1087 2.77692 15.7434 4.11437L13.0912 6.49459L12.8532 6.69861L12.6151 6.42658C12.6151 6.24523 12.5925 6.06388 12.5471 5.88253C12.5018 5.70118 12.3771 5.46316 12.1731 5.16847C11.7424 4.66976 11.2777 4.34106 10.779 4.18238C10.2803 4.00103 9.77022 3.91035 9.24884 3.91035C8.75013 3.91035 8.24008 4.0577 7.7187 4.35239C7.19732 4.62442 6.70994 5.05512 6.25657 5.64451C5.82586 6.21123 5.4745 6.93663 5.20247 7.82071C4.93045 8.70479 4.79443 9.74755 4.79443 10.949C4.79443 12.1051 4.88511 13.1252 5.06646 14.0093C5.27048 14.8933 5.5425 15.6414 5.88253 16.2535C6.24523 16.8429 6.6646 17.2962 7.14065 17.6136C7.63936 17.9083 8.18341 18.0556 8.77279 18.0556C9.31684 18.0556 9.79289 17.999 10.2009 17.8856C10.609 17.7723 11.3921 17.6136 11.9351 17.3416C12.4781 17.0695 14.4513 15.7831 14.7687 15.2164L17.5 18C16.5 19 15.7313 19.3248 14.5 20C13.3439 20.4987 10.0536 22 8.53477 22Z" fill="#A96BB6"/>
</svg>
