<svg width="48" height="48" viewBox="0 0 48 48" fill="none" xmlns="http://www.w3.org/2000/svg">
<circle cx="24" cy="24" r="24" fill="#A96BB6"/>
<path fill-rule="evenodd" clip-rule="evenodd" d="M15 14C12.7909 14 11 15.7909 11 18V18.0034L23.8381 24H24.1546L37 18C37 15.7909 35.2091 14 33 14H15ZM37 21C34.9514 21.9967 33.1216 22.7663 31.4013 23.4898L31.4008 23.49C28.8065 24.5811 26.461 25.5675 23.9895 27.0707L23.8454 26.9866V27.0034C20.8198 25.1632 18.0725 23.8649 14.784 22.3107L14.7838 22.3106C13.6047 21.7533 12.356 21.1632 11 20.5034V30C11 32.2091 12.7909 34 15 34H33C35.2091 34 37 32.2091 37 30V21Z" fill="#FFF5FF"/>
</svg>
