<svg width="48" height="48" viewBox="0 0 48 48" fill="none" xmlns="http://www.w3.org/2000/svg">
<circle cx="24" cy="24" r="24" fill="#A96BB6"/>
<path d="M9.9806 20.3809C9.07323 18.7179 8.81871 17.4739 9.12157 15.9532C9.47194 14.1939 10.6327 12.7288 11.9011 11.4604C12.6186 10.7429 13.4587 9.73487 14.4129 10.0801C14.5854 10.1426 14.7705 10.2421 14.9806 10.3809C15.7148 10.8676 16.1534 11.209 16.9806 11.8809C18.2571 13.1601 18.9498 13.8966 19.9806 15.3809C20.1424 15.615 20.267 15.8183 20.3443 16.0092C20.7202 16.9374 19.5421 17.5704 18.8297 18.2742C18.1924 18.9036 17.6587 19.8157 17.7872 20.7021C17.8165 20.9041 17.8782 21.123 17.9806 21.3809C18.2921 22.0932 18.508 22.5273 18.9806 23.3809C20.0911 25.236 20.3518 26.3545 22.9806 27.8809C24.4808 28.8809 25.4808 29.3125 26.9806 30.3809C27.4849 30.7402 27.6713 30.6373 27.9806 30.3809C29.0182 29.3565 29.5783 28.7458 30.9806 27.8809C32.2571 27.2777 33.5387 28.3184 34.6244 29.221C35.9021 30.2833 36.8875 31.2257 37.9806 32.8809C38.4597 33.8573 38.4052 34.4045 37.9806 35.3809C36.6205 37.9409 33.5239 38.825 30.6363 38.5695C30.1294 38.5246 29.5899 38.4602 28.9806 38.3809C27.7534 38.115 27.108 37.8706 25.9806 37.3809C23.5326 35.9953 22.2209 35.1155 19.9806 33.3809C17.6945 31.6491 16.3882 30.4132 13.9806 27.3809C12.0233 24.924 11.2924 23.2983 9.99835 20.4204L9.9806 20.3809Z" fill="#FFF5FF"/>
</svg>
