<svg width="48" height="48" viewBox="0 0 48 48" fill="none" xmlns="http://www.w3.org/2000/svg">
<circle cx="24" cy="24" r="24" fill="#A96BB6"/>
<path d="M17.5 33.5L18.5 32.5H18L16 32L15 31.5L13.5 30.5L12.5 28.5L15 28L13.5 27.5L12.5 26.5L11 25.5L10.5 23.5V22L11.5 22.5H13L12 21.5L11 20.5L10.5 19L10 17L10.5 15.5L11 14L12.5 15.5L14.5 17L16 18L18 19.5L20.5 20L22.5 20.5H24V18.5L24.5 17L25.5 15.5L26.5 14.5L27.5 13.5L29 13H31H32.5L33.5 13.5L35 15L36.5 14.5L39 13.5L38 15.5L36.5 17L38.5 16.5L40 16L38.5 18L37 19V20.5L36.5 24L35.5 27.5L34 30L32.5 32L31.5 33L30 34.5L28.5 35.5L26.5 36.5L23.5 37.5L20.5 38H16.5L13.5 37.5L9 35.5H12L14.5 34.5L17.5 33.5Z" fill="#FFF5FF"/>
</svg>
